<svg id="visual" viewBox="0 0 1365 695" width="1365" height="695" xmlns="http://www.w3.org/2000/svg" xmlns:xlink="http://www.w3.org/1999/xlink" version="1.1"><path d="M0 105L124 230L248 133L372 203L496 244L620 147L745 196L869 147L993 286L1117 216L1241 203L1365 189L1365 0L1241 0L1117 0L993 0L869 0L745 0L620 0L496 0L372 0L248 0L124 0L0 0Z" fill="#101415"></path><path d="M0 390L124 446L248 362L372 397L496 474L620 432L745 300L869 383L993 515L1117 432L1241 376L1365 453L1365 187L1241 201L1117 214L993 284L869 145L745 194L620 145L496 242L372 201L248 131L124 228L0 103Z" fill="#0b1011"></path><path d="M0 522L124 564L248 494L372 481L496 550L620 557L745 446L869 508L993 592L1117 529L1241 494L1365 543L1365 451L1241 374L1117 430L993 513L869 381L745 298L620 430L496 472L372 395L248 360L124 444L0 388Z" fill="#060c0d"></path><path d="M0 585L124 627L248 592L372 592L496 627L620 606L745 578L869 599L993 647L1117 592L1241 633L1365 633L1365 541L1241 492L1117 527L993 590L869 506L745 444L620 555L496 548L372 479L248 492L124 562L0 520Z" fill="#010708"></path><path d="M0 696L124 696L248 696L372 696L496 696L620 696L745 696L869 696L993 696L1117 696L1241 696L1365 696L1365 631L1241 631L1117 590L993 645L869 597L745 576L620 604L496 625L372 590L248 590L124 625L0 583Z" fill="#000000"></path></svg>